<mxfile host="65bd71144e">
    <diagram id="3Eb1a_4QV1NXNouaN8_e" name="第 1 页">
        <mxGraphModel dx="638" dy="459" grid="1" gridSize="10" guides="1" tooltips="1" connect="1" arrows="1" fold="1" page="1" pageScale="1" pageWidth="827" pageHeight="1169" math="0" shadow="0">
            <root>
                <mxCell id="0"/>
                <mxCell id="1" parent="0"/>
                <mxCell id="2" value="Exchange" style="rounded=1;whiteSpace=wrap;html=1;" vertex="1" parent="1">
                    <mxGeometry x="380" y="610" width="120" height="60" as="geometry"/>
                </mxCell>
                <mxCell id="11" value="Client of Symbol[i]" style="swimlane;horizontal=0;whiteSpace=wrap;html=1;" vertex="1" parent="1">
                    <mxGeometry x="100" y="340" width="660" height="180" as="geometry"/>
                </mxCell>
                <mxCell id="16" value="RestAPIMsgQueue" style="rounded=1;whiteSpace=wrap;html=1;" vertex="1" parent="11">
                    <mxGeometry x="135" y="70" width="200" height="40" as="geometry"/>
                </mxCell>
                <mxCell id="17" value="WsMsgQueue" style="rounded=1;whiteSpace=wrap;html=1;" vertex="1" parent="11">
                    <mxGeometry x="348.5" y="70" width="196.5" height="40" as="geometry"/>
                </mxCell>
                <mxCell id="18" value="EventLoop" style="rounded=1;whiteSpace=wrap;html=1;" vertex="1" parent="11">
                    <mxGeometry x="135" y="10" width="410" height="40" as="geometry"/>
                </mxCell>
                <mxCell id="34" value="RestApi" style="rounded=1;whiteSpace=wrap;html=1;" vertex="1" parent="11">
                    <mxGeometry x="135" y="130" width="80" height="40" as="geometry"/>
                </mxCell>
                <mxCell id="37" value="WS_Replicas" style="rounded=1;whiteSpace=wrap;html=1;" vertex="1" parent="11">
                    <mxGeometry x="240" y="130" width="80" height="40" as="geometry"/>
                </mxCell>
                <mxCell id="39" value="WS_Replicas" style="rounded=1;whiteSpace=wrap;html=1;" vertex="1" parent="11">
                    <mxGeometry x="348.5" y="130" width="80" height="40" as="geometry"/>
                </mxCell>
                <mxCell id="40" value="WS_Replicas" style="rounded=1;whiteSpace=wrap;html=1;" vertex="1" parent="11">
                    <mxGeometry x="465" y="130" width="80" height="40" as="geometry"/>
                </mxCell>
                <mxCell id="41" style="edgeStyle=none;html=1;" edge="1" parent="1" source="34" target="2">
                    <mxGeometry relative="1" as="geometry"/>
                </mxCell>
                <mxCell id="42" style="edgeStyle=none;html=1;" edge="1" parent="1" source="37" target="2">
                    <mxGeometry relative="1" as="geometry"/>
                </mxCell>
                <mxCell id="43" style="edgeStyle=none;html=1;" edge="1" parent="1" source="39" target="2">
                    <mxGeometry relative="1" as="geometry"/>
                </mxCell>
                <mxCell id="44" style="edgeStyle=none;html=1;" edge="1" parent="1" source="40" target="2">
                    <mxGeometry relative="1" as="geometry"/>
                </mxCell>
            </root>
        </mxGraphModel>
    </diagram>
</mxfile>